<svg width="40" height="35" viewBox="0 0 40 35" fill="none" xmlns="http://www.w3.org/2000/svg">
<mask id="mask0_2006_44" style="mask-type:luminance" maskUnits="userSpaceOnUse" x="0" y="0" width="40" height="35">
<path d="M40 0H0V35H40V0Z" fill="white"/>
</mask>
<g mask="url(#mask0_2006_44)">
<path d="M28.8064 11.6059C27.5776 12.709 15.4832 25.749 0.485658 27.0629C0.171365 27.0912 0.0170925 26.9857 0.00280655 26.9112C-0.160054 26.0446 6.82004 24.6535 6.60578 23.3729C6.17964 20.8282 6.56082 18.227 7.70527 15.8688C8.8497 13.5105 10.7109 11.491 13.0747 10.043C15.4384 8.59494 18.2084 7.77718 21.0659 7.68382C23.9234 7.59048 26.752 8.22534 29.2261 9.51536C30.0205 9.93193 30.0805 10.4591 28.8064 11.6059ZM11.1201 31.208C11.4058 31.4447 11.6915 31.6736 11.9772 31.8947C14.8417 34.0124 18.4681 35.1137 22.1725 34.9907C25.8769 34.868 29.4031 33.5294 32.0866 31.2275C34.7701 28.9258 36.4248 25.82 36.7389 22.4958C37.053 19.1716 36.005 15.8588 33.792 13.1823C33.1378 12.3929 35.0608 9.70822 34.5807 9.27621C34.4292 9.13992 34.1778 9.25048 33.9235 9.61307C33.7663 9.83935 24.589 23.2701 12.5429 29.2049C11.3401 29.8016 9.89436 30.1537 11.1201 31.208ZM38.8808 4.58845C38.3979 5.16191 38.6264 5.74818 38.7664 6.35248C39.0951 7.74877 37.9893 8.62049 37.6693 8.25021C35.9461 6.36395 33.7562 4.86688 31.2749 3.87875C30.772 3.69361 31.532 2.66245 32.4664 2.47731C33.3234 2.31273 34.252 2.56473 34.8634 1.83959C36.352 0.0704319 38.5293 -0.328147 39.3667 0.242713C40.2037 0.813575 40.3692 2.8193 38.8808 4.58845ZM38.3437 1.44615C38.0579 1.25072 37.3607 1.35102 36.8093 1.85244C36.7842 1.87469 36.7653 1.90181 36.7541 1.93169C36.7426 1.96156 36.7392 1.99339 36.7435 2.02472C36.7477 2.05544 36.7597 2.0849 36.7784 2.11076C36.7972 2.13663 36.8223 2.15824 36.8519 2.17387C37.2501 2.39255 37.6242 2.64483 37.9693 2.9273C37.9952 2.94902 38.0258 2.96534 38.0594 2.97512C38.093 2.98488 38.1288 2.9879 38.1637 2.98389C38.1978 2.97824 38.23 2.96616 38.2586 2.94844C38.2871 2.93071 38.3112 2.90773 38.3293 2.88103C38.7123 2.25616 38.6292 1.64158 38.3437 1.44615Z" fill="url(#paint0_linear_2006_44)"/>
</g>
<defs>
<linearGradient id="paint0_linear_2006_44" x1="14.0003" y1="34.9718" x2="36.464" y2="-0.685374" gradientUnits="userSpaceOnUse">
<stop stop-color="#181661"/>
<stop offset="0.09" stop-color="#311D70"/>
<stop offset="0.33" stop-color="#2A56C6"/>
<stop offset="0.55" stop-color="#9C3AB0"/>
<stop offset="0.74" stop-color="#BF43C4"/>
<stop offset="0.9" stop-color="#D349D0"/>
<stop offset="1" stop-color="#DB4BD5"/>
</linearGradient>
</defs>
</svg>
